<mxfile host="app.diagrams.net" modified="2022-01-16T19:21:59.801Z" agent="5.0 (Windows)" etag="ggcF7UGDfCN93Nha61vD" version="15.5.9" type="github">
  <diagram id="kgpKYQtTHZ0yAKxKKP6v" name="Page-1">
    <mxGraphModel dx="782" dy="351" grid="1" gridSize="10" guides="1" tooltips="1" connect="1" arrows="1" fold="1" page="1" pageScale="1" pageWidth="850" pageHeight="1100" math="0" shadow="0">
      <root>
        <mxCell id="0" />
        <mxCell id="1" parent="0" />
        <mxCell id="3nuBFxr9cyL0pnOWT2aG-1" value=":Chat Server A" style="shape=umlLifeline;perimeter=lifelinePerimeter;container=1;collapsible=0;recursiveResize=0;rounded=0;shadow=0;strokeWidth=1;whiteSpace=wrap;fillColor=#fff2cc;strokeColor=#A30000;" parent="1" vertex="1">
          <mxGeometry x="100" y="40" width="110" height="370" as="geometry" />
        </mxCell>
        <mxCell id="3nuBFxr9cyL0pnOWT2aG-5" value=":Chat Storage" style="shape=umlLifeline;perimeter=lifelinePerimeter;container=1;collapsible=0;recursiveResize=0;rounded=0;shadow=0;strokeWidth=1;fillColor=#fff2cc;strokeColor=#A30000;" parent="1" vertex="1">
          <mxGeometry x="325" y="40" width="100" height="370" as="geometry" />
        </mxCell>
        <mxCell id="mfpMlfjKEjd2NCaR22iV-1" value=":Chat Server B" style="shape=umlLifeline;perimeter=lifelinePerimeter;container=1;collapsible=0;recursiveResize=0;rounded=0;shadow=0;strokeWidth=1;fillColor=#fff2cc;strokeColor=#A30000;" vertex="1" parent="1">
          <mxGeometry x="540" y="40" width="100" height="370" as="geometry" />
        </mxCell>
        <mxCell id="mfpMlfjKEjd2NCaR22iV-22" value="&lt;div&gt;7. Sends ACK for delivery &lt;br&gt;&lt;/div&gt;&lt;div&gt;of Alice&#39;s message&lt;/div&gt;" style="html=1;verticalAlign=bottom;startArrow=none;startFill=0;endArrow=block;startSize=8;rounded=0;endFill=1;" edge="1" parent="mfpMlfjKEjd2NCaR22iV-1">
          <mxGeometry width="60" relative="1" as="geometry">
            <mxPoint x="200" y="240" as="sourcePoint" />
            <mxPoint x="50" y="240" as="targetPoint" />
          </mxGeometry>
        </mxCell>
        <mxCell id="mfpMlfjKEjd2NCaR22iV-9" style="edgeStyle=orthogonalEdgeStyle;rounded=0;orthogonalLoop=1;jettySize=auto;html=1;endArrow=oval;endFill=1;dashed=1;" edge="1" parent="1" source="mfpMlfjKEjd2NCaR22iV-3">
          <mxGeometry relative="1" as="geometry">
            <mxPoint x="35" y="410" as="targetPoint" />
          </mxGeometry>
        </mxCell>
        <mxCell id="mfpMlfjKEjd2NCaR22iV-3" value="Alice" style="shape=umlActor;verticalLabelPosition=bottom;verticalAlign=top;html=1;fillColor=#fff2cc;strokeColor=#A30000;" vertex="1" parent="1">
          <mxGeometry x="20" y="40" width="30" height="40" as="geometry" />
        </mxCell>
        <mxCell id="mfpMlfjKEjd2NCaR22iV-10" style="edgeStyle=orthogonalEdgeStyle;rounded=0;orthogonalLoop=1;jettySize=auto;html=1;dashed=1;endArrow=oval;endFill=1;" edge="1" parent="1" source="mfpMlfjKEjd2NCaR22iV-4">
          <mxGeometry relative="1" as="geometry">
            <mxPoint x="745" y="410" as="targetPoint" />
          </mxGeometry>
        </mxCell>
        <mxCell id="mfpMlfjKEjd2NCaR22iV-4" value="Bob" style="shape=umlActor;verticalLabelPosition=bottom;verticalAlign=top;html=1;fillColor=#fff2cc;strokeColor=#A30000;" vertex="1" parent="1">
          <mxGeometry x="730" y="40" width="30" height="40" as="geometry" />
        </mxCell>
        <mxCell id="mfpMlfjKEjd2NCaR22iV-14" value="1. Sends message for Bob" style="html=1;verticalAlign=bottom;startArrow=none;startFill=0;endArrow=block;startSize=8;rounded=0;endFill=1;" edge="1" parent="1" target="3nuBFxr9cyL0pnOWT2aG-1">
          <mxGeometry width="60" relative="1" as="geometry">
            <mxPoint x="40" y="120" as="sourcePoint" />
            <mxPoint x="430" y="220" as="targetPoint" />
          </mxGeometry>
        </mxCell>
        <mxCell id="mfpMlfjKEjd2NCaR22iV-16" value="2. Sends ACK back to Alice" style="html=1;verticalAlign=bottom;startArrow=block;startFill=1;endArrow=none;startSize=8;rounded=0;endFill=0;" edge="1" parent="1">
          <mxGeometry width="60" relative="1" as="geometry">
            <mxPoint x="40" y="150" as="sourcePoint" />
            <mxPoint x="150" y="150" as="targetPoint" />
          </mxGeometry>
        </mxCell>
        <mxCell id="mfpMlfjKEjd2NCaR22iV-18" value="&lt;div&gt;3. Makes the request to fetch the &lt;br&gt;&lt;/div&gt;&lt;div&gt;server to which Bob is connected to&lt;/div&gt;" style="html=1;verticalAlign=bottom;startArrow=none;startFill=0;endArrow=block;startSize=8;rounded=0;exitX=0.5;exitY=0.353;exitDx=0;exitDy=0;exitPerimeter=0;endFill=1;" edge="1" parent="1" source="3nuBFxr9cyL0pnOWT2aG-1" target="3nuBFxr9cyL0pnOWT2aG-5">
          <mxGeometry width="60" relative="1" as="geometry">
            <mxPoint x="220" y="170" as="sourcePoint" />
            <mxPoint x="164.5" y="130" as="targetPoint" />
          </mxGeometry>
        </mxCell>
        <mxCell id="mfpMlfjKEjd2NCaR22iV-19" value="&lt;div&gt;4. Returns the information that Bob&lt;/div&gt;&lt;div&gt; is connected to Chat Server B&lt;/div&gt;" style="html=1;verticalAlign=bottom;startArrow=block;startFill=1;endArrow=none;startSize=8;rounded=0;endFill=0;" edge="1" parent="1">
          <mxGeometry width="60" relative="1" as="geometry">
            <mxPoint x="155" y="200" as="sourcePoint" />
            <mxPoint x="375" y="200" as="targetPoint" />
          </mxGeometry>
        </mxCell>
        <mxCell id="mfpMlfjKEjd2NCaR22iV-20" value="5. Forwards the message to the server to which Bob is connected to" style="html=1;verticalAlign=bottom;startArrow=none;startFill=0;endArrow=block;startSize=8;rounded=0;endFill=1;" edge="1" parent="1">
          <mxGeometry width="60" relative="1" as="geometry">
            <mxPoint x="155" y="223" as="sourcePoint" />
            <mxPoint x="590" y="223" as="targetPoint" />
          </mxGeometry>
        </mxCell>
        <mxCell id="mfpMlfjKEjd2NCaR22iV-21" value="6. Forwards the message to Bob" style="html=1;verticalAlign=bottom;startArrow=none;startFill=0;endArrow=block;startSize=8;rounded=0;endFill=1;" edge="1" parent="1">
          <mxGeometry width="60" relative="1" as="geometry">
            <mxPoint x="590" y="245" as="sourcePoint" />
            <mxPoint x="740" y="245" as="targetPoint" />
          </mxGeometry>
        </mxCell>
        <mxCell id="mfpMlfjKEjd2NCaR22iV-23" value="8. Forwards Bob&#39;s ACK to Chat Server A" style="html=1;verticalAlign=bottom;startArrow=none;startFill=0;endArrow=block;startSize=8;rounded=0;endFill=1;" edge="1" parent="1" target="3nuBFxr9cyL0pnOWT2aG-1">
          <mxGeometry width="60" relative="1" as="geometry">
            <mxPoint x="590" y="290" as="sourcePoint" />
            <mxPoint x="600" y="290" as="targetPoint" />
          </mxGeometry>
        </mxCell>
        <mxCell id="mfpMlfjKEjd2NCaR22iV-24" value="9. Delivers Bob&#39;s ACK" style="html=1;verticalAlign=bottom;startArrow=none;startFill=0;endArrow=block;startSize=8;rounded=0;endFill=1;exitX=0.518;exitY=0.714;exitDx=0;exitDy=0;exitPerimeter=0;" edge="1" parent="1" source="3nuBFxr9cyL0pnOWT2aG-1">
          <mxGeometry width="60" relative="1" as="geometry">
            <mxPoint x="155" y="316" as="sourcePoint" />
            <mxPoint x="40" y="304" as="targetPoint" />
          </mxGeometry>
        </mxCell>
        <mxCell id="mfpMlfjKEjd2NCaR22iV-25" value="&lt;div&gt;10. Sends ACK for having &lt;br&gt;&lt;/div&gt;&lt;div&gt;read Alice&#39;s message&lt;/div&gt;" style="html=1;verticalAlign=bottom;startArrow=none;startFill=0;endArrow=block;startSize=8;rounded=0;endFill=1;" edge="1" parent="1">
          <mxGeometry width="60" relative="1" as="geometry">
            <mxPoint x="750" y="310" as="sourcePoint" />
            <mxPoint x="590" y="310" as="targetPoint" />
            <Array as="points" />
          </mxGeometry>
        </mxCell>
        <mxCell id="mfpMlfjKEjd2NCaR22iV-26" value="&lt;div&gt;11. Makes the request to fetch the &lt;br&gt;&lt;/div&gt;&lt;div&gt;server to which Alice is connected to&lt;/div&gt;" style="html=1;verticalAlign=bottom;startArrow=none;startFill=0;endArrow=block;startSize=8;rounded=0;endFill=1;" edge="1" parent="1">
          <mxGeometry width="60" relative="1" as="geometry">
            <mxPoint x="590" y="320" as="sourcePoint" />
            <mxPoint x="375" y="320" as="targetPoint" />
            <Array as="points" />
          </mxGeometry>
        </mxCell>
        <mxCell id="mfpMlfjKEjd2NCaR22iV-27" value="&lt;div&gt;12. Returns the information that Alice &lt;br&gt;&lt;/div&gt;&lt;div&gt;is connected to Chat Server A&lt;/div&gt;" style="html=1;verticalAlign=bottom;startArrow=none;startFill=0;endArrow=block;startSize=8;rounded=0;endFill=1;exitX=0.51;exitY=0.841;exitDx=0;exitDy=0;exitPerimeter=0;" edge="1" parent="1" source="3nuBFxr9cyL0pnOWT2aG-5">
          <mxGeometry width="60" relative="1" as="geometry">
            <mxPoint x="375" y="367" as="sourcePoint" />
            <mxPoint x="590" y="351" as="targetPoint" />
          </mxGeometry>
        </mxCell>
        <mxCell id="mfpMlfjKEjd2NCaR22iV-30" value="13. Forwards the ACK for Bob having read the message" style="html=1;verticalAlign=bottom;startArrow=none;startFill=0;endArrow=block;startSize=8;rounded=0;endFill=1;" edge="1" parent="1" target="3nuBFxr9cyL0pnOWT2aG-1">
          <mxGeometry width="60" relative="1" as="geometry">
            <mxPoint x="590" y="370" as="sourcePoint" />
            <mxPoint x="50" y="326" as="targetPoint" />
          </mxGeometry>
        </mxCell>
        <mxCell id="mfpMlfjKEjd2NCaR22iV-31" value="14. Forwards the ACK" style="html=1;verticalAlign=bottom;startArrow=none;startFill=0;endArrow=block;startSize=8;rounded=0;endFill=1;exitX=0.509;exitY=0.935;exitDx=0;exitDy=0;exitPerimeter=0;" edge="1" parent="1" source="3nuBFxr9cyL0pnOWT2aG-1">
          <mxGeometry width="60" relative="1" as="geometry">
            <mxPoint x="155" y="395" as="sourcePoint" />
            <mxPoint x="40" y="386" as="targetPoint" />
          </mxGeometry>
        </mxCell>
        <mxCell id="mfpMlfjKEjd2NCaR22iV-32" value="&lt;font style=&quot;font-size: 10px&quot;&gt;Message appears as SENT to Alice&lt;/font&gt;" style="shape=note;whiteSpace=wrap;html=1;backgroundOutline=1;darkOpacity=0.05;fillColor=#fff2cc;strokeColor=#A30000;" vertex="1" parent="1">
          <mxGeometry x="10" y="160" width="130" height="40" as="geometry" />
        </mxCell>
        <mxCell id="mfpMlfjKEjd2NCaR22iV-33" value="&lt;font style=&quot;font-size: 10px&quot;&gt;Message appears as DELIVERED to Alice&lt;/font&gt;" style="shape=note;whiteSpace=wrap;html=1;backgroundOutline=1;darkOpacity=0.05;fillColor=#fff2cc;strokeColor=#A30000;" vertex="1" parent="1">
          <mxGeometry x="10" y="310" width="130" height="40" as="geometry" />
        </mxCell>
        <mxCell id="mfpMlfjKEjd2NCaR22iV-34" value="&lt;font style=&quot;font-size: 10px&quot;&gt;Message appears as READ to Alice&lt;/font&gt;" style="shape=note;whiteSpace=wrap;html=1;backgroundOutline=1;darkOpacity=0.05;fillColor=#fff2cc;strokeColor=#A30000;" vertex="1" parent="1">
          <mxGeometry x="20" y="400" width="130" height="40" as="geometry" />
        </mxCell>
      </root>
    </mxGraphModel>
  </diagram>
</mxfile>
